<?xml version="1.0" encoding="UTF-8"?><svg id="a" xmlns="http://www.w3.org/2000/svg" viewBox="0 0 1100 700"><defs><style>.b{letter-spacing:-.01em;}.c{font-size:20px;}.c,.d{font-family:National2-Regular, 'National 2';}.e{letter-spacing:0em;}.f{fill:#eee9e3;}.g{stroke:#ee9fee;}.g,.h,.i{stroke-width:3.11px;}.g,.h,.i,.j,.k,.l{fill:none;stroke-miterlimit:10;}.h{stroke:#eead59;}.i{stroke:#ff005c;}.m{letter-spacing:0em;}.n{font-size:36px;}.n,.o,.p,.q{font-family:National2-Bold, 'National 2';}.r{letter-spacing:-.04em;}.s{letter-spacing:0em;}.t{letter-spacing:0em;}.j{stroke-dasharray:0 0 3.4 3.4;}.j,.k,.l{stroke:#000;}.u{letter-spacing:-.01em;}.l{stroke-dasharray:0 0 3.39 3.39;}.v{letter-spacing:-.03em;}.w{letter-spacing:-.02em;}.d,.o,.p,.q{font-size:24px;}.o{fill:#d77fda;}.p{fill:#d28e3d;}.q{fill:#ff005c;}.x{letter-spacing:0em;}.y{letter-spacing:0em;}.z{letter-spacing:0em;}</style></defs><rect class="f" width="1100" height="700"/><polyline class="h" points="199.45 466.78 212.73 459.14 226.01 468.69 239.3 463.39 252.58 471.67 265.87 474.43 279.15 467.42 292.43 464.23 305.72 453.62 319 443.22 332.29 463.39 345.57 469.12 358.85 458.29 372.14 468.69 385.42 456.59 398.71 470.39 411.99 451.5 425.27 442.58 438.56 456.59 451.84 461.69 465.13 454.47 478.41 457.65 491.69 437.91 504.98 439.4 518.26 443.43 531.55 440.46 544.83 438.33 558.12 425.81 571.4 411.58 584.68 431.12 597.97 419.65 611.25 413.07 624.54 420.08 637.82 416.47 651.1 411.58 664.39 408.61 677.67 403.73 690.96 403.09 704.24 396.08 717.52 398.84 730.81 403.73 744.09 408.82 757.38 406.7 770.66 406.91 783.94 402.24 797.23 393.54 810.51 384.41 823.8 380.8 837.08 380.59 850.36 376.13 863.65 373.79 876.93 375.49 890.22 371.88"/><polyline class="i" points="199.45 436.21 212.73 428.14 226.01 421.99 239.3 412.86 252.58 388.23 265.87 372.73 279.15 358.29 292.43 336.64 305.72 312.86 319 292.9 332.29 275.28 345.57 259.15 358.85 241.53 372.14 248.11 385.42 231.34 398.71 220.08 411.99 230.49 425.27 216.26 438.56 223.69 451.84 248.53 465.13 260.21 478.41 266.79 491.69 264.24 504.98 254.05 518.26 264.24 531.55 254.69 544.83 238.13 558.12 235.58 571.4 240.25 584.68 263.18 597.97 264.46 611.25 253.63 624.54 263.18 637.82 258.09 651.1 249.17 664.39 241.1 677.67 238.13 690.96 257.87 704.24 233.46 717.52 233.88 730.81 236.64 744.09 236.64 757.38 241.31 770.66 233.04 783.94 232.19 797.23 229.85 810.51 224.33 823.8 214.14 837.08 210.74 850.36 194.18 863.65 178.69 876.93 184.84 890.22 182.93"/><polyline class="g" points="199.45 424.53 212.73 414.56 226.01 412.22 239.3 405.21 252.58 400.33 265.87 396.72 279.15 396.08 292.43 395.24 305.72 393.32 319 383.56 332.29 388.65 345.57 391.41 358.85 383.56 372.14 385.26 385.42 382.07 398.71 383.56 411.99 377.4 425.27 364.88 438.56 365.09 451.84 362.12 465.13 359.78 478.41 353.41 491.69 344.07 504.98 342.16 518.26 341.52 531.55 341.1 544.83 337.28 558.12 333.67 571.4 331.33 584.68 334.3 597.97 338.55 611.25 336.64 624.54 335.37 637.82 330.48 651.1 325.39 664.39 323.26 677.67 320.29 690.96 317.32 704.24 314.35 717.52 311.8 730.81 312.22 744.09 311.59 757.38 310.1 770.66 307.55 783.94 304.58 797.23 300.76 810.51 294.82 823.8 290.99 837.08 290.99 850.36 285.69 863.65 281.65 876.93 280.59 890.22 278.47"/><g><line class="k" x1="34.98" y1="571.66" x2="889.72" y2="571.66"/><line class="k" x1="34.98" y1="465.27" x2="115.05" y2="465.27"/><line class="k" x1="34.98" y1="360.73" x2="115.05" y2="360.73"/><line class="k" x1="34.98" y1="254.35" x2="115.05" y2="254.35"/><line class="k" x1="34.98" y1="147.96" x2="115.05" y2="147.96"/><text class="d" transform="translate(34.27 558.17)"><tspan x="0" y="0">1,500</tspan></text><text class="d" transform="translate(33.61 452.02)"><tspan x="0" y="0">2,000</tspan></text><text class="d" transform="translate(33.61 345.87)"><tspan x="0" y="0">2,500</tspan></text><text class="d" transform="translate(34.08 239.71)"><tspan x="0" y="0">3,000</tspan></text><text class="d" transform="translate(300.54 603.48)"><tspan x="0" y="0">1970</tspan></text><text class="d" transform="translate(433.38 603.48)"><tspan x="0" y="0">1980</tspan></text><text class="d" transform="translate(566.22 603.48)"><tspan x="0" y="0">1990</tspan></text><text class="d" transform="translate(699.06 603.48)"><tspan x="0" y="0">2000</tspan></text><text class="d" transform="translate(831.9 603.48)"><tspan x="0" y="0">2010</tspan></text><text class="d" transform="translate(34.08 138.42)"><tspan x="0" y="0">3,500 calories/day</tspan></text><text class="d" transform="translate(181.52 603.48)"><tspan x="0" y="0">1961</tspan></text></g><text class="q" transform="translate(900.3 184.78)"><tspan class="x" x="0" y="0">S</tspan><tspan x="14.16" y="0">outh </tspan><tspan class="v" x="71.64" y="0">K</tspan><tspan x="87.05" y="0">o</tspan><tspan class="y" x="100.7" y="0">r</tspan><tspan x="110.66" y="0">ea</tspan></text><text class="o" transform="translate(900.3 282.84)"><tspan class="r" x="0" y="0">W</tspan><tspan x="20.66" y="0">orld</tspan></text><text class="p" transform="translate(904.51 376.21)"><tspan class="t" x="0" y="0">L</tspan><tspan class="u" x="13.44" y="0">o</tspan><tspan class="w" x="26.83" y="0">w</tspan><tspan x="44.81" y="0">-income</tspan><tspan x="0" y="28.8">countri</tspan><tspan class="m" x="81.48" y="28.8">e</tspan><tspan class="s" x="94.37" y="28.8">s</tspan></text><text class="n" transform="translate(34.98 84.79)"><tspan x="0" y="0">Food supply per capita</tspan></text><text class="c" transform="translate(34.97 666.19)"><tspan x="0" y="0">Source: Food and Agriculture Organization, United Nations</tspan></text><text class="c" transform="translate(544.83 203.75)"><tspan x="0" y="0">I’m </tspan><tspan class="z" x="32.78" y="0">b</tspan><tspan class="e" x="44.46" y="0">orn</tspan></text><g><line class="k" x1="537.68" y1="571.66" x2="537.68" y2="569.96"/><line class="l" x1="537.68" y1="566.57" x2="537.68" y2="188.46"/><line class="k" x1="537.68" y1="186.77" x2="537.68" y2="185.07"/></g><text class="c" transform="translate(178.38 203.75)"><tspan x="0" y="0">My pa</tspan><tspan class="b" x="53.02" y="0">r</tspan><tspan x="60.32" y="0">ents </tspan><tspan class="z" x="104.06" y="0">b</tspan><tspan class="e" x="115.74" y="0">orn</tspan></text><g><line class="k" x1="167.88" y1="571.66" x2="167.88" y2="569.96"/><line class="j" x1="167.88" y1="566.56" x2="167.88" y2="186.93"/><line class="k" x1="167.88" y1="185.23" x2="167.88" y2="183.54"/></g></svg>