<?xml version="1.0" encoding="UTF-8"?><svg id="a" xmlns="http://www.w3.org/2000/svg" viewBox="0 0 1100 700"><defs><style>.b,.c{letter-spacing:0em;}.d,.e{letter-spacing:-.02em;}.d,.f,.g,.h,.c{font-family:National2-Bold, 'National 2';}.i{letter-spacing:-.01em;}.j,.k,.l,.m,.n{font-family:National2-Regular, 'National 2';}.j,.n{fill:#666;}.k,.o{font-size:20px;}.p{letter-spacing:-.02em;}.q{fill:#eee9e3;}.r{fill:#ff005c;}.m{font-size:22.94px;}.s{letter-spacing:0em;}.f{font-size:36px;}.t{stroke-dasharray:0 0 3.36 3.36;}.t,.u,.v,.w,.x{stroke:#000;}.t,.u,.v,.w,.x,.y{fill:none;stroke-miterlimit:10;}.u{stroke-width:1.02px;}.n,.z{letter-spacing:0em;}.aa{letter-spacing:0em;}.ab{letter-spacing:-.01em;}.h,.ac{letter-spacing:0em;}.ad{letter-spacing:-.02em;}.w{stroke-dasharray:0 0 3.41 3.41;}.ae{letter-spacing:0em;}.af{letter-spacing:-.07em;}.x{stroke-dasharray:0 3.39;}.y{stroke:#333;stroke-width:1.95px;}</style></defs><rect class="q" y="0" width="1100" height="700"/><line class="y" x1="38.47" y1="571.87" x2="1052.47" y2="571.87"/><line class="u" x1="38.47" y1="466.46" x2="105.53" y2="466.46"/><line class="u" x1="38.47" y1="363.03" x2="105.53" y2="363.03"/><line class="u" x1="38.47" y1="257.62" x2="105.53" y2="257.62"/><line class="u" x1="38.47" y1="152.21" x2="105.53" y2="152.21"/><rect class="r" x="533.69" y="566.9" width="47.77" height="3.98"/><rect class="r" x="608.21" y="543.03" width="47.77" height="27.84"/><rect class="r" x="682.73" y="320.27" width="47.77" height="250.6"/><rect class="r" x="757.25" y="234.75" width="47.77" height="336.12"/><rect class="r" x="831.77" y="383.92" width="47.77" height="186.96"/><rect class="r" x="904.38" y="352.1" width="47.77" height="218.78"/><rect class="r" x="978.9" y="362.04" width="47.77" height="208.83"/><text class="m" transform="translate(37.2 562.22)"><tspan x="0" y="0">0</tspan></text><text class="m" transform="translate(37.94 457.53)"><tspan x="0" y="0">100,000</tspan></text><text class="m" transform="translate(37.44 352.85)"><tspan x="0" y="0">200,000</tspan></text><text class="m" transform="translate(37.8 248.17)"><tspan x="0" y="0">300,000</tspan></text><text class="m" transform="translate(37.8 143.49)"><tspan x="0" y="0">400,000</tspan></text><text class="m" transform="translate(158.76 605.58)"><tspan x="0" y="0">1900* </tspan></text><text class="m" transform="translate(233.01 605.58)"><tspan x="0" y="0">1910* </tspan></text><text class="m" transform="translate(307.26 605.58)"><tspan x="0" y="0">1920* </tspan></text><text class="m" transform="translate(381.51 605.58)"><tspan x="0" y="0">1930 </tspan></text><text class="m" transform="translate(455.75 605.58)"><tspan x="0" y="0">1940 </tspan></text><text class="m" transform="translate(530 605.58)"><tspan x="0" y="0">1950 </tspan></text><text class="m" transform="translate(604.25 605.58)"><tspan x="0" y="0">1960 </tspan></text><text class="m" transform="translate(678.5 605.58)"><tspan x="0" y="0">1970 </tspan></text><text class="m" transform="translate(752.75 605.58)"><tspan x="0" y="0">1980 </tspan></text><text class="m" transform="translate(827 605.58)"><tspan x="0" y="0">1990 </tspan></text><text class="m" transform="translate(901.25 605.58)"><tspan x="0" y="0">2000 </tspan></text><text class="m" transform="translate(975.5 605.58)"><tspan x="0" y="0">2010 </tspan></text><text class="f" transform="translate(38.47 84.79)"><tspan x="0" y="0">Koreans receiving lawful permanent residence in the US</tspan></text><text class="k" transform="translate(34.97 666.19)"><tspan x="0" y="0">Source: U.S. Department of Homeland Security; Boston University’s Korean Diaspora Project. *Data not available</tspan></text><text class="o" transform="translate(464.46 178.77)"><tspan class="g"><tspan x="0" y="0">First of </tspan><tspan class="aa" x="71.26" y="0">m</tspan><tspan x="88.96" y="0">y </tspan><tspan class="ae" x="104.58" y="0">r</tspan><tspan class="s" x="112.88" y="0">el</tspan><tspan class="aa" x="129.84" y="0">a</tspan><tspan x="140.84" y="0">ti</tspan><tspan class="e" x="154.88" y="0">v</tspan><tspan class="b" x="165.66" y="0">e</tspan><tspan x="176.4" y="0">s</tspan></tspan><tspan class="g" x="11.02" y="24">arri</tspan><tspan class="d" x="44.66" y="24">v</tspan><tspan class="c" x="55.44" y="24">e</tspan><tspan class="g" x="66.18" y="24">s in US</tspan><tspan class="l" x="127.78" y="24"> </tspan><tspan class="j" x="132.78" y="24">after</tspan><tspan class="j"><tspan x="12.17" y="48">Asian immigration</tspan></tspan><tspan class="j"><tspan x="25.68" y="72">ban is </tspan><tspan class="i" x="83.5" y="72">r</tspan><tspan x="90.8" y="72">e</tspan><tspan class="ae" x="101.2" y="72">v</tspan><tspan class="s" x="111.18" y="72">ers</tspan><tspan class="ac" x="138.48" y="72">e</tspan><tspan x="148.98" y="72">d</tspan></tspan></text><g><line class="v" x1="558.97" y1="559.95" x2="558.97" y2="558.26"/><line class="t" x1="558.97" y1="554.9" x2="558.97" y2="261"/><line class="v" x1="558.97" y1="259.32" x2="558.97" y2="257.62"/></g><text class="k" transform="translate(682.57 180.77)"><tspan x="0" y="0">My mom</tspan><tspan class="ad" x="76.04" y="0">’</tspan><tspan x="81.14" y="0">s nuclear</tspan><tspan x="-4.47" y="24">fami</tspan><tspan class="i" x="34.55" y="24">l</tspan><tspan x="40.19" y="24">y arri</tspan><tspan class="ae" x="85.83" y="24">v</tspan><tspan x="95.81" y="24">es in US</tspan></text><g><line class="v" x1="706.62" y1="311.31" x2="706.62" y2="309.62"/><line class="w" x1="706.62" y1="306.2" x2="706.62" y2="219.21"/><line class="v" x1="706.62" y1="217.5" x2="706.62" y2="215.81"/></g><text class="o" transform="translate(248.06 176.45)"><tspan class="g"><tspan x="0" y="0">Asian immig</tspan><tspan class="ab" x="115.42" y="0">r</tspan><tspan class="aa" x="123.6" y="0">a</tspan><tspan class="s" x="134.6" y="0">tion </tspan></tspan><tspan class="g" x="-16.03" y="24">bann</tspan><tspan class="h" x="31.07" y="24">e</tspan><tspan class="g" x="41.85" y="24">d</tspan><tspan class="j" x="53.99" y="24" xml:space="preserve"> after Cong</tspan><tspan class="n" x="151.45" y="24">r</tspan><tspan class="j" x="158.75" y="24">ess </tspan><tspan class="j"><tspan x="17.17" y="48">passes Oriental </tspan></tspan><tspan class="j"><tspan x="-8.52" y="72">E</tspan><tspan class="z" x="3.02" y="72">x</tspan><tspan x="12.88" y="72">clusion Act of 19</tspan><tspan class="p" x="158.94" y="72">2</tspan><tspan x="168.9" y="72">4</tspan></tspan></text><text class="k" transform="translate(119.31 509.42)"><tspan class="p" x="0" y="0">K</tspan><tspan x="12.16" y="0">o</tspan><tspan class="z" x="23.2" y="0">r</tspan><tspan x="30.5" y="0">eans </tspan><tspan class="ac" x="76.98" y="0">c</tspan><tspan x="87.1" y="0">ame to the </tspan><tspan x="8.37" y="24">US as la</tspan><tspan class="ac" x="78.97" y="24">b</tspan><tspan x="90.65" y="24">o</tspan><tspan class="z" x="101.69" y="24">r</tspan><tspan x="108.99" y="24">ers and </tspan><tspan x="17.9" y="48">“pic</tspan><tspan class="ae" x="54.22" y="48">t</tspan><tspan x="61.78" y="48">u</tspan><tspan class="i" x="72.94" y="48">r</tspan><tspan x="80.24" y="48">e brides</tspan><tspan class="af" x="151.26" y="48">.</tspan><tspan x="155.46" y="48">” </tspan></text><line class="x" x1="334.01" y1="562.49" x2="334.01" y2="263.56"/></svg>