<?xml version="1.0" encoding="UTF-8"?><svg id="a" xmlns="http://www.w3.org/2000/svg" viewBox="0 0 550 700"><defs><style>.b{letter-spacing:0em;}.c{font-size:18px;}.c,.d,.e{font-family:National2-Regular, 'National 2';}.f{letter-spacing:-.02em;}.d{font-size:14px;}.g{fill:#eee9e3;}.h{fill:#ff005c;}.i{fill:#c6bdb5;}.e,.j{font-size:13px;}.k{letter-spacing:0em;}.l{letter-spacing:-.05em;}.m{letter-spacing:-.01em;}.n{font-size:36px;}.n,.j{font-family:National2-Bold, 'National 2';}.o{letter-spacing:-.05em;}.p{fill:none;stroke:#eee9e3;stroke-miterlimit:10;stroke-width:.6px;}.q{letter-spacing:-.02em;}.r{letter-spacing:0em;}.s{letter-spacing:0em;}.t{letter-spacing:-.01em;}.u{letter-spacing:0em;}</style></defs><rect class="g" x=".63" width="549.37" height="700"/><text class="n" transform="translate(13.48 45.35)"><tspan x="0" y="0">What Americans put in kimchi</tspan></text><text class="c" transform="translate(13.91 74.8)"><tspan x="0" y="0">I gathered 23 of the most popular online recipes, and received </tspan><tspan x="0" y="21.6">19 recipes from a callout</tspan></text><g><polygon class="i" points="119.54 206.01 119.55 206.01 265.59 206.01 265.59 206.01 265.59 194.02 265.59 194.01 119.55 194.01 119.54 194.02 119.54 206.01"/><polygon class="i" points="119.54 224.97 119.55 224.97 265.59 224.97 265.59 224.97 265.59 212.97 265.59 212.97 119.55 212.97 119.54 212.97 119.54 224.97"/><polygon class="i" points="119.54 243.92 119.55 243.92 265.59 243.92 265.59 243.92 265.59 231.92 265.59 231.92 119.55 231.92 119.54 231.92 119.54 243.92"/><polygon class="i" points="119.54 263.01 119.55 263.01 265.59 263.01 265.59 263.01 265.59 251.02 265.59 251.01 119.55 251.01 119.54 251.02 119.54 263.01"/><polygon class="i" points="119.54 282.01 119.55 282.01 265.59 282.01 265.59 282.01 265.59 270.02 265.59 270.01 119.55 270.01 119.54 270.02 119.54 282.01"/><polygon class="i" points="119.54 301.01 119.55 301.01 265.59 301.01 265.59 301.01 265.59 289.02 265.59 289.01 119.55 289.01 119.54 289.02 119.54 301.01"/><polygon class="i" points="119.54 320.01 119.55 320.01 265.59 320.01 265.59 320.01 265.59 308.02 265.59 308.01 119.55 308.01 119.54 308.02 119.54 320.01"/><polygon class="i" points="119.54 339.01 119.55 339.01 265.59 339.01 265.59 339.01 265.59 327.02 265.59 327.01 119.55 327.01 119.54 327.02 119.54 339.01"/><polygon class="i" points="119.54 358.01 119.55 358.01 265.59 358.01 265.59 358.01 265.59 346.02 265.59 346.01 119.55 346.01 119.54 346.02 119.54 358.01"/><polygon class="h" points="119.54 206.01 119.55 206.01 261.76 206.01 261.76 206.01 261.76 194.02 261.76 194.01 119.55 194.01 119.54 194.02 119.54 206.01"/><polygon class="h" points="119.54 225.01 119.55 225.01 247.9 225.01 247.9 225.01 247.9 213.02 247.9 213.01 119.55 213.01 119.54 213.02 119.54 225.01"/><polygon class="h" points="119.54 244.01 119.55 244.01 244.62 244.01 244.62 244.01 244.62 232.02 244.62 232.01 119.55 232.01 119.54 232.02 119.54 244.01"/><polygon class="h" points="119.54 263.01 119.55 263.01 195.76 263.01 195.76 263.01 195.76 251.02 195.76 251.01 119.55 251.01 119.54 251.02 119.54 263.01"/><polygon class="h" points="119.54 282.01 119.55 282.01 168.04 282.01 168.04 282.01 168.04 270.02 168.04 270.01 119.55 270.01 119.54 270.02 119.54 282.01"/><polygon class="h" points="119.54 301.01 119.55 301.01 161.11 301.01 161.12 301.01 161.12 289.02 161.11 289.01 119.55 289.01 119.54 289.02 119.54 301.01"/><polygon class="h" points="119.54 320.01 119.55 320.01 133.4 320.01 133.4 320.01 133.4 308.02 133.4 308.01 119.55 308.01 119.54 308.02 119.54 320.01"/><polygon class="h" points="119.54 339.01 119.55 339.01 129.75 339.01 129.75 339.01 129.75 327.02 129.75 327.01 119.55 327.01 119.54 327.02 119.54 339.01"/><polygon class="h" points="119.54 358.01 119.55 358.01 122.83 358.01 122.83 358.01 122.83 346.02 122.83 346.01 119.55 346.01 119.54 346.02 119.54 358.01"/><text class="d" transform="translate(79.65 203.82)"><tspan x="0" y="0">Garlic</tspan></text><text class="d" transform="translate(75.57 222.78)"><tspan x="0" y="0">Ginger</tspan></text><text class="d" transform="translate(40.83 241.74)"><tspan x="0" y="0">Green onion</tspan></text><text class="d" transform="translate(41.78 260.71)"><tspan x="0" y="0">White onion</tspan></text><text class="d" transform="translate(75.34 279.67)"><tspan x="0" y="0">Chives</tspan></text><text class="d" transform="translate(36.42 298.63)"><tspan x="0" y="0">Yellow onion</tspan></text><text class="d" transform="translate(65.52 317.6)"><tspan x="0" y="0">Shallots</tspan></text><text class="d" transform="translate(79.99 336.56)"><tspan x="0" y="0">Leeks</tspan></text><text class="d" transform="translate(73.3 355.52)"><tspan x="0" y="0">Ramps</tspan></text></g><g><polygon class="i" points="119.54 554.97 119.55 554.97 265.59 554.97 265.59 554.97 265.59 542.97 265.59 542.97 119.55 542.97 119.54 542.97 119.54 554.97"/><polygon class="i" points="119.49 574.08 119.49 574.08 265.53 574.08 265.53 574.08 265.53 562.08 265.53 562.08 119.49 562.08 119.49 562.08 119.49 574.08"/><polygon class="i" points="119.59 593.05 119.59 593.06 265.64 593.06 265.64 593.05 265.64 581.06 265.64 581.06 119.59 581.06 119.59 581.06 119.59 593.05"/><polygon class="i" points="119.54 612.14 119.55 612.14 265.59 612.14 265.59 612.14 265.59 600.14 265.59 600.14 119.55 600.14 119.54 600.14 119.54 612.14"/><polygon class="i" points="119.54 631.1 119.55 631.1 265.59 631.1 265.59 631.1 265.59 619.1 265.59 619.1 119.55 619.1 119.54 619.1 119.54 631.1"/><polygon class="i" points="119.54 650.05 119.55 650.05 265.59 650.05 265.59 650.05 265.59 638.05 265.59 638.05 119.55 638.05 119.54 638.05 119.54 650.05"/><polygon class="i" points="119.54 669.01 119.55 669.01 265.59 669.01 265.59 669.01 265.59 657.01 265.59 657.01 119.55 657.01 119.54 657.01 119.54 669.01"/><polygon class="h" points="119.54 555.05 119.55 555.05 126.47 555.05 126.47 555.05 126.47 543.05 126.47 543.05 119.55 543.05 119.54 543.05 119.54 555.05"/><polygon class="h" points="119.54 574.05 119.55 574.05 126.47 574.05 126.47 574.05 126.47 562.05 126.47 562.05 119.55 562.05 119.54 562.05 119.54 574.05"/><polygon class="h" points="119.54 593.05 119.55 593.05 122.83 593.05 122.83 593.05 122.83 581.05 122.83 581.05 119.55 581.05 119.54 581.05 119.54 593.05"/><polygon class="h" points="119.54 612.05 119.55 612.05 122.83 612.05 122.83 612.05 122.83 600.05 122.83 600.05 119.55 600.05 119.54 600.05 119.54 612.05"/><polygon class="h" points="119.54 631.05 119.55 631.05 122.83 631.05 122.83 631.05 122.83 619.05 122.83 619.05 119.55 619.05 119.54 619.05 119.54 631.05"/><polygon class="h" points="119.54 650.05 119.55 650.05 122.83 650.05 122.83 650.05 122.83 638.05 122.83 638.05 119.55 638.05 119.54 638.05 119.54 650.05"/><polygon class="h" points="119.54 669.05 119.55 669.05 122.83 669.05 122.83 669.05 122.83 657.05 122.83 657.05 119.55 657.05 119.54 657.05 119.54 669.05"/><polygon class="i" points="119.54 403.05 119.55 403.05 265.59 403.05 265.59 403.05 265.59 391.05 265.59 391.05 119.55 391.05 119.54 391.05 119.54 403.05"/><polygon class="i" points="119.54 422.05 119.55 422.05 265.59 422.05 265.59 422.05 265.59 410.05 265.59 410.05 119.55 410.05 119.54 410.05 119.54 422.05"/><polygon class="i" points="119.54 441.05 119.55 441.05 265.59 441.05 265.59 441.05 265.59 429.05 265.59 429.05 119.55 429.05 119.54 429.05 119.54 441.05"/><polygon class="i" points="119.54 460.05 119.55 460.05 265.59 460.05 265.59 460.05 265.59 448.05 265.59 448.05 119.55 448.05 119.54 448.05 119.54 460.05"/><polygon class="h" points="119.54 403.05 119.55 403.05 216.91 403.05 216.91 403.05 216.91 391.05 216.91 391.05 119.55 391.05 119.54 391.05 119.54 403.05"/><polygon class="h" points="119.54 422.05 119.55 422.05 213.26 422.05 213.26 422.05 213.26 410.05 213.26 410.05 119.55 410.05 119.54 410.05 119.54 422.05"/><polygon class="h" points="119.54 441.05 119.55 441.05 140.33 441.05 140.33 441.05 140.33 429.05 140.33 429.05 119.55 429.05 119.54 429.05 119.54 441.05"/><polygon class="h" points="119.54 460.05 119.55 460.05 133.4 460.05 133.4 460.05 133.4 448.05 133.4 448.05 119.55 448.05 119.54 448.05 119.54 460.05"/><text class="d" transform="translate(50.98 401.53)"><tspan x="0" y="0">Fish sauce</tspan></text><text class="d" transform="translate(1.37 420.49)"><tspan x="0" y="0">Fermented shrimp</tspan></text><text class="d" transform="translate(54.29 439.45)"><tspan x="0" y="0">Soy sauce</tspan></text><text class="d" transform="translate(35.74 458.42)"><tspan x="0" y="0">Oyster sauce</tspan></text><polygon class="i" points="119.54 497.89 119.55 497.89 265.59 497.89 265.59 497.89 265.59 485.89 265.59 485.89 119.55 485.89 119.54 485.89 119.54 497.89"/><polygon class="i" points="119.54 516.89 119.55 516.89 265.59 516.89 265.59 516.89 265.59 504.89 265.59 504.89 119.55 504.89 119.54 504.89 119.54 516.89"/><polygon class="i" points="119.54 535.89 119.55 535.89 265.59 535.89 265.59 535.89 265.59 523.89 265.59 523.89 119.55 523.89 119.54 523.89 119.54 535.89"/><polygon class="h" points="119.54 497.89 119.55 497.89 129.75 497.89 129.75 497.89 129.75 485.89 129.75 485.89 119.55 485.89 119.54 485.89 119.54 497.89"/><polygon class="h" points="119.54 516.89 119.55 516.89 126.47 516.89 126.47 516.89 126.47 504.89 126.47 504.89 119.55 504.89 119.54 504.89 119.54 516.89"/><polygon class="h" points="119.54 535.89 119.55 535.89 126.47 535.89 126.47 535.89 126.47 523.89 126.47 523.89 119.55 523.89 119.54 523.89 119.54 535.89"/><text class="d" transform="translate(16.71 496.22)"><tspan x="0" y="0">Anchovy (dried)</tspan></text><text class="d" transform="translate(20.49 515.19)"><tspan x="0" y="0">Pollock (dried) </tspan></text><text class="d" transform="translate(50.13 534.15)"><tspan x="0" y="0">Mushroom</tspan></text><polygon class="i" points="119.54 479.32 119.55 479.32 265.59 479.32 265.59 479.32 265.59 467.33 265.59 467.32 119.55 467.32 119.54 467.33 119.54 479.32"/><polygon class="h" points="119.54 479.32 119.55 479.32 133.4 479.32 133.4 479.32 133.4 467.33 133.4 467.32 119.55 467.32 119.54 467.33 119.54 479.32"/><text class="d" transform="translate(87.92 477.54)"><tspan x="0" y="0">Kelp</tspan></text><text class="d" transform="translate(87.09 553.23)"><tspan x="0" y="0">Miso</tspan></text><text class="d" transform="translate(75.21 572.2)"><tspan x="0" y="0">Oyster</tspan></text><text class="d" transform="translate(87.62 591.16)"><tspan x="0" y="0">MSG</tspan></text><text class="d" transform="translate(44.77 610.13)"><tspan x="0" y="0">Squid (raw)</tspan></text><text class="d" transform="translate(49.67 629.09)"><tspan x="0" y="0">Kombucha</tspan></text><text class="d" transform="translate(49.31 648.05)"><tspan x="0" y="0">Sesame oil</tspan></text><text class="d" transform="translate(35.49 667.02)"><tspan x="0" y="0">Sesame seed</tspan></text></g><g><polygon class="h" points="119.54 186.51 119.55 186.51 265.41 186.51 265.41 186.51 265.41 174.52 265.41 174.51 119.55 174.51 119.54 174.52 119.54 186.51"/><text class="d" transform="translate(48.82 184.44)"><tspan x="0" y="0">Gochugaru</tspan></text></g><g><line class="p" x1="155.83" y1="137.31" x2="155.83" y2="684.31"/><line class="p" x1="192.29" y1="137.31" x2="192.29" y2="684.31"/><line class="p" x1="228.76" y1="137.31" x2="228.76" y2="684.31"/><line class="p" x1="265.59" y1="137.31" x2="265.59" y2="684.31"/><text class="e" transform="translate(144.9 164.26)"><tspan x="0" y="0">25%</tspan></text><text class="e" transform="translate(180.87 164.26)"><tspan x="0" y="0">50%</tspan></text><text class="e" transform="translate(217.88 164.26)"><tspan x="0" y="0">75%</tspan></text><text class="e" transform="translate(249.77 164.26)"><tspan x="0" y="0">100%</tspan></text></g><text class="j" transform="translate(83.29 381.94)"><tspan class="q" x="0" y="0">F</tspan><tspan x="7.15" y="0">unk</tspan></text><text class="j" transform="translate(32.9 160.65)"><tspan class="k" x="0" y="0">Al</tspan><tspan x="13.12" y="0">lium</tspan><tspan class="r" x="40.16" y="0">s</tspan><tspan class="l" x="46.49" y="0">/</tspan><tspan x="51.64" y="0">spice</tspan></text><g><polygon class="i" points="383.09 181.88 383.1 181.88 529.14 181.88 529.14 181.88 529.14 169.88 529.14 169.88 383.1 169.88 383.09 169.88 383.09 181.88"/><polygon class="i" points="383.09 201.02 383.1 201.02 529.14 201.02 529.14 201.02 529.14 189.02 529.14 189.02 383.1 189.02 383.09 189.02 383.09 201.02"/><polygon class="i" points="383.09 220.02 383.1 220.02 529.14 220.02 529.14 220.02 529.14 208.02 529.14 208.02 383.1 208.02 383.09 208.02 383.09 220.02"/><polygon class="i" points="383.02 238.94 383.02 238.94 529.07 238.94 529.07 238.94 529.07 226.95 529.07 226.94 383.02 226.94 383.02 226.95 383.02 238.94"/><polygon class="i" points="383.09 258.02 383.1 258.02 529.14 258.02 529.14 258.02 529.14 246.02 529.14 246.02 383.1 246.02 383.09 246.02 383.09 258.02"/><polygon class="i" points="383.09 277.02 383.1 277.02 529.14 277.02 529.14 277.02 529.14 265.02 529.14 265.02 383.1 265.02 383.09 265.02 383.09 277.02"/><polygon class="i" points="383.09 296.11 383.1 296.11 529.14 296.11 529.14 296.11 529.14 284.11 529.14 284.11 383.1 284.11 383.09 284.11 383.09 296.11"/><polygon class="i" points="383.09 315.06 383.1 315.06 529.14 315.06 529.14 315.06 529.14 303.06 529.14 303.06 383.1 303.06 383.09 303.06 383.09 315.06"/><polygon class="h" points="383.09 182.02 383.1 182.02 483.74 182.02 483.74 182.02 483.74 170.02 483.74 170.02 383.1 170.02 383.09 170.02 383.09 182.02"/><polygon class="h" points="383.09 201.02 383.1 201.02 431.59 201.02 431.59 201.02 431.59 189.02 431.59 189.02 383.1 189.02 383.09 189.02 383.09 201.02"/><polygon class="h" points="383.09 220.02 383.1 220.02 403.88 220.02 403.88 220.02 403.88 208.02 403.88 208.02 383.1 208.02 383.09 208.02 383.09 220.02"/><polygon class="h" points="383.09 239.02 383.1 239.02 393.3 239.02 393.3 239.02 393.3 227.02 393.3 227.02 383.1 227.02 383.09 227.02 383.09 239.02"/><polygon class="h" points="383.09 258.02 383.1 258.02 390.02 258.02 390.02 258.02 390.02 246.02 390.02 246.02 383.1 246.02 383.09 246.02 383.09 258.02"/><polygon class="h" points="383.09 277.02 383.1 277.02 386.38 277.02 386.38 277.02 386.38 265.02 386.38 265.02 383.1 265.02 383.09 265.02 383.09 277.02"/><polygon class="h" points="383.09 296.02 383.1 296.02 386.38 296.02 386.38 296.02 386.38 284.02 386.38 284.02 383.1 284.02 383.09 284.02 383.09 296.02"/><polygon class="h" points="383.09 315.02 383.1 315.02 386.38 315.02 386.38 315.02 386.38 303.02 386.38 303.02 383.1 303.02 383.09 303.02 383.09 315.02"/><text class="d" transform="translate(344.94 179.91)"><tspan x="0" y="0">Sugar</tspan></text><text class="d" transform="translate(337.27 198.87)"><tspan x="0" y="0">Apples</tspan></text><text class="d" transform="translate(300.1 217.83)"><tspan x="0" y="0">Plum extract</tspan></text><text class="d" transform="translate(340.39 236.8)"><tspan x="0" y="0">Honey</tspan></text><text class="d" transform="translate(309.11 255.76)"><tspan x="0" y="0">Goji berries</tspan></text><text class="d" transform="translate(323.76 274.73)"><tspan x="0" y="0">Artificial </tspan></text><text class="d" transform="translate(314.97 293.69)"><tspan x="0" y="0">Rice syrup</tspan></text><text class="d" transform="translate(313.08 312.65)"><tspan x="0" y="0">Fruit stock</tspan></text></g><g><polygon class="i" points="383.09 363.31 383.1 363.31 529.14 363.31 529.14 363.31 529.14 351.31 529.14 351.31 383.1 351.31 383.09 351.31 383.09 363.31"/><polygon class="i" points="383.09 382.27 383.1 382.27 529.14 382.27 529.14 382.27 529.14 370.27 529.14 370.27 383.1 370.27 383.09 370.27 383.09 382.27"/><polygon class="i" points="383.09 401.22 383.1 401.22 529.14 401.22 529.14 401.22 529.14 389.22 529.14 389.22 383.1 389.22 383.09 389.22 383.09 401.22"/><polygon class="h" points="383.09 363.31 383.1 363.31 462.95 363.31 462.95 363.31 462.95 351.31 462.95 351.31 383.1 351.31 383.09 351.31 383.09 363.31"/><polygon class="h" points="383.09 382.31 383.1 382.31 386.38 382.31 386.38 382.31 386.38 370.31 386.38 370.31 383.1 370.31 383.09 370.31 383.09 382.31"/><polygon class="h" points="383.09 401.31 383.1 401.31 386.38 401.31 386.38 401.31 386.38 389.31 386.38 389.31 383.1 389.31 383.09 389.31 383.09 401.31"/><text class="d" transform="translate(279.83 360.91)"><tspan x="0" y="0">Sweet rice flour </tspan></text><text class="d" transform="translate(338.52 379.88)"><tspan x="0" y="0">Potato</tspan></text><text class="d" transform="translate(269.65 398.84)"><tspan x="0" y="0">Wheat flour paste</tspan></text></g><g><polygon class="i" points="383.09 453.22 383.1 453.22 529.14 453.22 529.14 453.22 529.14 441.22 529.14 441.22 383.1 441.22 383.09 441.22 383.09 453.22"/><polygon class="i" points="383.09 472.22 383.1 472.22 529.14 472.22 529.14 472.22 529.14 460.22 529.14 460.22 383.1 460.22 383.09 460.22 383.09 472.22"/><polygon class="i" points="383.02 491.29 383.02 491.29 529.07 491.29 529.07 491.29 529.07 479.29 529.07 479.29 383.02 479.29 383.02 479.29 383.02 491.29"/><polygon class="i" points="383.03 510.27 383.03 510.27 529.07 510.27 529.07 510.27 529.07 498.27 529.07 498.27 383.03 498.27 383.03 498.27 383.03 510.27"/><polygon class="i" points="383.09 529.22 383.1 529.22 529.14 529.22 529.14 529.22 529.14 517.22 529.14 517.22 383.1 517.22 383.09 517.22 383.09 529.22"/><polygon class="i" points="383.09 548.22 383.1 548.22 529.14 548.22 529.14 548.22 529.14 536.22 529.14 536.22 383.1 536.22 383.09 536.22 383.09 548.22"/><polygon class="i" points="383.09 567.31 383.1 567.31 529.14 567.31 529.14 567.31 529.14 555.31 529.14 555.31 383.1 555.31 383.09 555.31 383.09 567.31"/><polygon class="i" points="383.09 586.27 383.1 586.27 529.14 586.27 529.14 586.27 529.14 574.27 529.14 574.27 383.1 574.27 383.09 574.27 383.09 586.27"/><polygon class="i" points="383.09 605.22 383.1 605.22 529.14 605.22 529.14 605.22 529.14 593.22 529.14 593.22 383.1 593.22 383.09 593.22 383.09 605.22"/><polygon class="h" points="383.09 453.22 383.1 453.22 456.02 453.22 456.03 453.22 456.03 441.22 456.02 441.22 383.1 441.22 383.09 441.22 383.09 453.22"/><polygon class="h" points="383.09 472.22 383.1 472.22 452.38 472.22 452.38 472.22 452.38 460.22 452.38 460.22 383.1 460.22 383.09 460.22 383.09 472.22"/><polygon class="h" points="383.09 491.22 383.1 491.22 452.38 491.22 452.38 491.22 452.38 479.22 452.38 479.22 383.1 479.22 383.09 479.22 383.09 491.22"/><polygon class="h" points="383.09 510.22 383.1 510.22 396.95 510.22 396.95 510.22 396.95 498.22 396.95 498.22 383.1 498.22 383.09 498.22 383.09 510.22"/><polygon class="h" points="383.09 529.22 383.1 529.22 390.02 529.22 390.02 529.22 390.02 517.22 390.02 517.22 383.1 517.22 383.09 517.22 383.09 529.22"/><polygon class="h" points="383.09 548.22 383.1 548.22 386.38 548.22 386.38 548.22 386.38 536.22 386.38 536.22 383.1 536.22 383.09 536.22 383.09 548.22"/><polygon class="h" points="383.09 567.22 383.1 567.22 386.38 567.22 386.38 567.22 386.38 555.22 386.38 555.22 383.1 555.22 383.09 555.22 383.09 567.22"/><polygon class="h" points="383.09 586.22 383.1 586.22 386.38 586.22 386.38 586.22 386.38 574.22 386.38 574.22 383.1 574.22 383.09 574.22 383.09 586.22"/><polygon class="h" points="383.09 605.22 383.1 605.22 386.38 605.22 386.38 605.22 386.38 593.22 386.38 593.22 383.1 593.22 383.09 593.22 383.09 605.22"/><text class="d" transform="translate(293.76 451.71)"><tspan x="0" y="0">Korean radish</tspan></text><text class="d" transform="translate(337.02 470.68)"><tspan x="0" y="0">Daikon</tspan></text><text class="d" transform="translate(334.34 489.64)"><tspan x="0" y="0">Carrots</tspan></text><text class="d" transform="translate(283.58 508.6)"><tspan x="0" y="0">Mustard greens</tspan></text><text class="d" transform="translate(341.39 527.57)"><tspan x="0" y="0">Minari</tspan></text><text class="d" transform="translate(323.54 546.53)"><tspan x="0" y="0">Bok choy</tspan></text><text class="d" transform="translate(302.06 565.49)"><tspan x="0" y="0">Bell peppers</tspan></text><text class="d" transform="translate(280.27 584.46)"><tspan x="0" y="0">Vegetable stock</tspan></text><text class="d" transform="translate(322.04 603.42)"><tspan x="0" y="0">Pine nuts</tspan></text></g><line class="p" x1="419.38" y1="134.97" x2="419.38" y2="684.31"/><line class="p" x1="455.84" y1="134.97" x2="455.84" y2="684.31"/><line class="p" x1="492.31" y1="134.97" x2="492.31" y2="684.31"/><line class="p" x1="529.14" y1="134.97" x2="529.14" y2="684.31"/><text class="j" transform="translate(314.05 430.66)"><tspan class="o" x="0" y="0">V</tspan><tspan x="8.03" y="0">e</tspan><tspan class="t" x="14.98" y="0">g</tspan><tspan x="22.13" y="0">eta</tspan><tspan class="b" x="41.76" y="0">b</tspan><tspan x="49.69" y="0">l</tspan><tspan class="b" x="53.77" y="0">e</tspan><tspan x="60.75" y="0">s</tspan></text><text class="j" transform="translate(309.79 158.86)"><tspan x="0" y="0">S</tspan><tspan class="m" x="7.6" y="0">w</tspan><tspan class="s" x="17.39" y="0">e</tspan><tspan x="24.4" y="0">eteners</tspan></text><text class="j" transform="translate(310.62 342.4)"><tspan x="0" y="0">Thic</tspan><tspan class="f" x="26.52" y="0">k</tspan><tspan class="u" x="33.77" y="0">eners</tspan></text><text class="e" transform="translate(409 162.44)"><tspan x="0" y="0">25%</tspan></text><text class="e" transform="translate(445.04 162.44)"><tspan x="0" y="0">50%</tspan></text><text class="e" transform="translate(482.12 162.44)"><tspan x="0" y="0">75%</tspan></text><text class="e" transform="translate(514.07 162.44)"><tspan x="0" y="0">100%</tspan></text></svg>