<svg viewBox="0 0 550 700" xmlns="http://www.w3.org/2000/svg"><defs><style>@font-face {
	font-family: "National2-Regular";
	src: url("https://pudding.cool/assets/fonts/national/National2Web-Regular.woff2") format("woff2");
	font-weight: 400;
	font-style: normal;
	font-stretch: normal;
	font-display: swap;
}

@font-face {
	font-family: "National2-Bold";
	src: url("https://pudding.cool/assets/fonts/national/National2Web-Bold.woff2") format("woff2");
	font-weight: 700;
	font-style: normal;
	font-stretch: normal;
	font-display: swap;
}.b,.c{letter-spacing:-.02em;}.b,.d,.e,.f,.g{font-family:National2-Bold, 'National 2';}.h{letter-spacing:-.01em;}.i{fill:#666;}.i,.j,.k,.l,.m,.n{font-family:National2-Regular, 'National 2';}.j{font-size:20px;}.o{stroke-dasharray:0 2.4;}.o,.p,.q,.r,.s,.t{fill:none;stroke-miterlimit:10;}.o,.q,.r,.s,.t{stroke:#000;}.o,.r,.s,.t{stroke-width:.71px;}.u{letter-spacing:-.02em;}.v{fill:#eee9e3;}.w{fill:#ff005c;}.x{letter-spacing:-.01em;}.d{letter-spacing:0em;}.p{stroke:#333;stroke-width:1.38px;}.q{stroke-width:.72px;}.l{font-size:16px;}.e{font-size:36px;}.y,.m,.n{font-size:15px;}.s{stroke-dasharray:0 0 2.4 2.4;}.z{letter-spacing:0em;}.aa{letter-spacing:0em;}.ab{letter-spacing:-.01em;}.g,.ac{letter-spacing:0em;}.ad{letter-spacing:0em;}.ae{letter-spacing:0em;}.af{letter-spacing:0em;}.n{fill:#fff;stroke:#eee9e3;stroke-linecap:round;stroke-linejoin:round;stroke-width:4px;}.ag{letter-spacing:0em;}.t{stroke-dasharray:0 0 2.4 2.4;}.ah{letter-spacing:-.07em;}</style></defs><path d="m-.74 0h552.57v700h-552.57z" fill="#eee9e3"/><path d="m100.19 467.47 6.67-7.65 6.67 9.56 6.68-5.31 6.67 8.28 6.67 2.76 6.68-7.01 6.67-3.18 6.67-10.62 6.68-10.4 6.67 20.17 6.67 5.73 6.67-10.83 6.68 10.41 6.67-12.11 6.67 13.8 6.68-18.89 6.67-8.92 6.67 14.01 6.68 5.1 6.67-7.22 6.67 3.19 6.67-19.75 6.68 1.49 6.67 4.03 6.67-2.97 6.68-2.12 6.67-12.53 6.67-14.22 6.68 19.53 6.67-11.47 6.67-6.58 6.67 7.01 6.68-3.61 6.67-4.88 6.67-2.98 6.68-4.88 6.67-.64 6.67-7 6.68 2.76 6.67 4.88 6.67 5.1 6.68-2.13 6.67.22 6.67-4.68 6.67-8.7 6.68-9.13 6.67-3.61 6.67-.21 6.68-4.46 6.67-2.33 6.67 1.69 6.68-3.6" fill="none" stroke="#eead59" stroke-miterlimit="10" stroke-width="3"/><path d="m100.19 436.89 6.67-8.06 6.67-6.16 6.68-9.13 6.67-24.63 6.67-15.5 6.68-14.43 6.67-21.66 6.67-23.78 6.68-19.95 6.67-17.62 6.67-16.14 6.67-17.62 6.68 6.58 6.67-16.77 6.67-11.25 6.68 10.4 6.67-14.22 6.67 7.43 6.68 24.84 6.67 11.67 6.67 6.58 6.67-2.54 6.68-10.19 6.67 10.19 6.67-9.56 6.68-16.56 6.67-2.54 6.67 4.67 6.68 22.93 6.67 1.27 6.67-10.83 6.67 9.56 6.68-5.1 6.67-8.92 6.67-8.06 6.68-2.98 6.67 19.75 6.67-24.42 6.68.43 6.67 2.76h6.67l6.68 4.67 6.67-8.28 6.67-.85 6.67-2.34 6.68-5.52 6.67-10.19 6.67-3.39 6.68-16.56 6.67-15.5 6.67 6.15 6.68-1.91" fill="none" stroke="#ff005c" stroke-miterlimit="10" stroke-width="3"/><path d="m100.19 425.22 6.67-9.98 6.67-2.34 6.68-7 6.67-4.89 6.67-3.61 6.68-.63 6.67-.85 6.67-1.91 6.68-9.77 6.67 5.1 6.67 2.76 6.67-7.86 6.68 1.7 6.67-3.18 6.67 1.48 6.68-6.15 6.67-12.53 6.67.21 6.68-2.97 6.67-2.34 6.67-6.37 6.67-9.34 6.68-1.91 6.67-.63 6.67-.43 6.68-3.82 6.67-3.61 6.67-2.33 6.68 2.97 6.67 4.24 6.67-1.91 6.67-1.27 6.68-4.88 6.67-5.1 6.67-2.12 6.68-2.97 6.67-2.98 6.67-2.97 6.68-2.55 6.67.43 6.67-.64 6.68-1.49 6.67-2.54 6.67-2.98 6.67-3.82 6.68-5.94 6.67-3.82h6.67l6.68-5.31 6.67-4.03 6.67-1.07 6.68-2.12" fill="none" stroke="#ee9fee" stroke-miterlimit="10" stroke-width="3"/><path d="m17.57 572.34h429.36" fill="none" stroke="#000" stroke-miterlimit="10" stroke-width=".71"/><path d="m17.57 465.96h40.22" fill="none" stroke="#000" stroke-miterlimit="10" stroke-width=".71"/><path d="m17.57 361.41h40.22" fill="none" stroke="#000" stroke-miterlimit="10" stroke-width=".71"/><path d="m17.57 255.03h40.22" fill="none" stroke="#000" stroke-miterlimit="10" stroke-width=".71"/><path d="m17.57 148.65h40.22" fill="none" stroke="#000" stroke-miterlimit="10" stroke-width=".71"/><g font-family="National2-Regular, 'National 2'" font-size="20"><text transform="translate(17.21 558.85)"><tspan x="0" y="0">1,500</tspan></text><text transform="translate(16.88 452.7)"><tspan x="0" y="0">2,000</tspan></text><text transform="translate(16.88 346.55)"><tspan x="0" y="0">2,500</tspan></text><text transform="translate(17.12 240.4)"><tspan x="0" y="0">3,000</tspan></text><text transform="translate(150.97 604.16)"><tspan x="0" y="0">1970</tspan></text><text transform="translate(217.7 604.16)"><tspan x="0" y="0">1980</tspan></text><text transform="translate(284.43 604.16)"><tspan x="0" y="0">1990</tspan></text><text transform="translate(351.16 604.16)"><tspan x="0" y="0">2000</tspan></text><text transform="translate(417.89 604.16)"><tspan x="0" y="0">2010</tspan></text><text transform="translate(17.12 139.1)"><tspan x="0" y="0">3,500 calories/day</tspan></text><text transform="translate(91.19 604.16)"><tspan x="0" y="0">1961</tspan></text></g><text fill="#ff005c" font-family="National2-Bold, 'National 2'" font-size="16" transform="translate(452.25 183.14)"><tspan letter-spacing="0em" x="0" y="0">S</tspan><tspan x="9.44" y="0">outh</tspan><tspan letter-spacing="-.03em" x="47.76" y="0">K</tspan><tspan x="58.03" y="0">o</tspan><tspan letter-spacing="0em" x="67.13" y="0">r</tspan><tspan letter-spacing="0em" x="73.77" y="0">ea</tspan></text><text fill="#d77fda" font-family="National2-Bold, 'National 2'" font-size="16" transform="translate(452.25 281.19)"><tspan letter-spacing="-.04em" x="0" y="0">W</tspan><tspan x="13.78" y="0">orld</tspan></text><text fill="#d28e3d" font-family="National2-Bold, 'National 2'" font-size="16" transform="translate(454.37 371.12)"><tspan letter-spacing="0em" x="0" y="0">L</tspan><tspan letter-spacing="-.01em" x="8.96" y="0">o</tspan><tspan letter-spacing="-.01em" x="17.89" y="0">w</tspan><tspan x="29.87" y="0">-income</tspan><tspan x="0" y="19.2">countri</tspan><tspan letter-spacing="0em" x="54.32" y="19.2">e</tspan><tspan x="62.91" y="19.2">s</tspan></text><text font-family="National2-Bold, 'National 2'" font-size="36" transform="translate(17.57 85.48)"><tspan x="0" y="0">Food supply per capita</tspan></text><text font-family="National2-Regular, 'National 2'" font-size="16" transform="translate(17.57 666.87)"><tspan x="0" y="0">Source: Food and Agriculture Organization, United Nations</tspan></text><text font-family="National2-Regular, 'National 2'" font-size="20" transform="translate(273.69 204.44)"><tspan x="0" y="0">I’m</tspan><tspan letter-spacing="0em" x="32.78" y="0">b</tspan><tspan x="44.46" y="0">orn</tspan></text><path d="m270.09 572.34v-1.2" fill="none" stroke="#000" stroke-miterlimit="10" stroke-width=".71"/><path d="m270.09 568.72v-380.55" fill="none" stroke="#000" stroke-dasharray="0 0 2.42 2.42" stroke-miterlimit="10" stroke-width=".71"/><path d="m270.09 186.96v-1.2" fill="none" stroke="#000" stroke-miterlimit="10" stroke-width=".71"/><text font-family="National2-Regular, 'National 2'" font-size="20" transform="translate(89.61 204.44)"><tspan x="0" y="0">My pa</tspan><tspan letter-spacing="-.01em" x="53.02" y="0">r</tspan><tspan letter-spacing="0em" x="60.32" y="0">ents</tspan><tspan letter-spacing="0em" x="104.06" y="0">b</tspan><tspan x="115.74" y="0">orn</tspan></text><path d="m84.33 572.34v-1.2" fill="none" stroke="#000" stroke-miterlimit="10" stroke-width=".71"/><path d="m84.33 568.74v-382.12" fill="none" stroke="#000" stroke-dasharray="0 0 2.4 2.4" stroke-miterlimit="10" stroke-width=".71"/><path d="m84.33 185.42v-1.2" fill="none" stroke="#000" stroke-miterlimit="10" stroke-width=".71"/></svg>