<?xml version="1.0" encoding="UTF-8"?><svg id="a" xmlns="http://www.w3.org/2000/svg" viewBox="0 0 1100 700"><defs><style>@font-face {
	font-family: "National2-Regular";
	src: url("https://pudding.cool/assets/fonts/national/National2Web-Regular.woff2") format("woff2");
	font-weight: 400;
	font-style: normal;
	font-stretch: normal;
	font-display: swap;
}

@font-face {
	font-family: "National2-Bold";
	src: url("https://pudding.cool/assets/fonts/national/National2Web-Bold.woff2") format("woff2");
	font-weight: 700;
	font-style: normal;
	font-stretch: normal;
	font-display: swap;
}.b{font-size:20px;}.b,.c{font-family:National2-Regular, 'National 2';}.d{fill:#eee9e3;}.e{fill:#ff005c;}.c,.f{font-size:22.94px;}.g{font-size:36px;}.g,.f{font-family:National2-Bold, 'National 2';}</style></defs><rect class="d" x="300.54" y="14.83" width="523.02" height="660.21"/><text class="b" transform="translate(330.68 579.8)"><tspan x="0" y="0">Source: The Korea Herald via the Korean Ministry of </tspan><tspan x="0" y="24">Agriculture, Food and Rural Affairs/Korean Food </tspan><tspan x="0" y="48">Promotion Institute</tspan></text><path class="e" d="M518.25,489.78h-125v-147.85c0-1.9,.9-3.44,2-3.44h121c1.1,0,2,1.54,2,3.44v147.85Z"/><path class="e" d="M687.68,489.78h-125V166.57c0-1.9,.9-3.44,2-3.44h121c1.1,0,2,1.54,2,3.44V489.78Z"/><text class="f" transform="translate(428.68 523.42)"><tspan x="0" y="0">2009</tspan></text><text class="f" transform="translate(601.03 523.42)"><tspan x="0" y="0">2017</tspan></text><text class="c" transform="translate(428.46 326.45)"><tspan x="0" y="0">1,046</tspan></text><text class="c" transform="translate(597.42 150.18)"><tspan x="0" y="0">2,247</tspan></text><text class="g" transform="translate(330.68 90.89)"><tspan x="0" y="0">Korea restaurants in the US</tspan></text></svg>