<?xml version="1.0" encoding="UTF-8"?><svg id="a" xmlns="http://www.w3.org/2000/svg" viewBox="0 0 550 700"><defs><style>.b,.c{letter-spacing:-.02em;}.b,.d,.e,.f,.g{font-family:National2-Bold, 'National 2';}.h{letter-spacing:-.01em;}.i{fill:#666;}.i,.j,.k,.l,.m,.n{font-family:National2-Regular, 'National 2';}.j{font-size:20px;}.o{stroke-dasharray:0 2.4;}.o,.p,.q,.r,.s,.t{fill:none;stroke-miterlimit:10;}.o,.q,.r,.s,.t{stroke:#000;}.o,.r,.s,.t{stroke-width:.71px;}.u{letter-spacing:-.02em;}.v{fill:#eee9e3;}.w{fill:#ff005c;}.x{letter-spacing:-.01em;}.d{letter-spacing:0em;}.p{stroke:#333;stroke-width:1.38px;}.q{stroke-width:.72px;}.l{font-size:16px;}.e{font-size:36px;}.y,.m,.n{font-size:15px;}.s{stroke-dasharray:0 0 2.4 2.4;}.z{letter-spacing:0em;}.aa{letter-spacing:0em;}.ab{letter-spacing:-.01em;}.g,.ac{letter-spacing:0em;}.ad{letter-spacing:0em;}.ae{letter-spacing:0em;}.af{letter-spacing:0em;}.n{fill:#fff;stroke:#eee9e3;stroke-linecap:round;stroke-linejoin:round;stroke-width:4px;}.ag{letter-spacing:0em;}.t{stroke-dasharray:0 0 2.4 2.4;}.ah{letter-spacing:-.07em;}</style></defs><rect class="v" y="0" width="550" height="700"/><line class="p" x1="19.23" y1="571.87" x2="526.23" y2="571.87"/><line class="q" x1="19.23" y1="466.46" x2="52.76" y2="466.46"/><line class="q" x1="19.23" y1="363.03" x2="52.76" y2="363.03"/><line class="q" x1="19.23" y1="257.62" x2="52.76" y2="257.62"/><line class="q" x1="19.23" y1="152.21" x2="52.76" y2="152.21"/><rect class="w" x="266.85" y="566.9" width="23.88" height="3.98"/><rect class="w" x="304.11" y="543.03" width="23.88" height="27.84"/><rect class="w" x="341.37" y="320.27" width="23.88" height="250.6"/><rect class="w" x="378.63" y="234.75" width="23.88" height="336.12"/><rect class="w" x="415.89" y="383.92" width="23.88" height="186.96"/><rect class="w" x="452.19" y="352.1" width="23.88" height="218.78"/><rect class="w" x="489.45" y="362.04" width="23.88" height="208.83"/><text class="j" transform="translate(18.6 562.22)"><tspan x="0" y="0">0</tspan></text><text class="j" transform="translate(18.97 457.53)"><tspan x="0" y="0">100,000</tspan></text><text class="j" transform="translate(18.72 352.85)"><tspan x="0" y="0">200,000</tspan></text><text class="j" transform="translate(18.9 248.17)"><tspan x="0" y="0">300,000</tspan></text><text class="j" transform="translate(18.9 143.49)"><tspan x="0" y="0">400,000</tspan></text><text class="j" transform="translate(79.38 605.58)"><tspan x="0" y="0">00* </tspan></text><text class="j" transform="translate(116.5 605.58)"><tspan x="0" y="0">10* </tspan></text><text class="j" transform="translate(153.63 605.58)"><tspan x="0" y="0">20* </tspan></text><text class="j" transform="translate(190.75 605.58)"><tspan x="0" y="0">30 </tspan></text><text class="j" transform="translate(226.88 605.58)"><tspan x="0" y="0">40 </tspan></text><text class="j" transform="translate(265 605.58)"><tspan x="0" y="0">50 </tspan></text><text class="j" transform="translate(306.13 605.58)"><tspan x="0" y="0">60 </tspan></text><text class="j" transform="translate(343.25 605.58)"><tspan x="0" y="0">70 </tspan></text><text class="j" transform="translate(380.38 605.58)"><tspan x="0" y="0">80 </tspan></text><text class="j" transform="translate(417.5 605.58)"><tspan x="0" y="0">90 </tspan></text><text class="j" transform="translate(454.63 605.58)"><tspan x="0" y="0">00 </tspan></text><text class="j" transform="translate(491.75 605.58)"><tspan x="0" y="0">10 </tspan></text><text class="e" transform="translate(19.23 50.19)"><tspan x="0" y="0">Koreans receiving lawful</tspan><tspan x="0" y="43.2">permanent residence in the US</tspan></text><text class="l" transform="translate(17.49 666.19)"><tspan x="0" y="0">Source: U.S. Department of Homeland Security; Boston University’s</tspan><tspan x="0" y="19.2">Korean Diaspora Project. *Data not available</tspan></text><text class="y" transform="translate(202.12 191.27)"><tspan class="f"><tspan x="0" y="0">First of </tspan><tspan class="aa" x="53.44" y="0">m</tspan><tspan class="z" x="66.72" y="0">y </tspan><tspan class="af" x="78.43" y="0">r</tspan><tspan x="84.66" y="0">el</tspan><tspan class="aa" x="97.38" y="0">a</tspan><tspan class="z" x="105.63" y="0">ti</tspan><tspan class="c" x="116.16" y="0">v</tspan><tspan class="ad" x="124.24" y="0">e</tspan><tspan x="132.3" y="0">s</tspan></tspan><tspan class="f" x="8.26" y="18">arri</tspan><tspan class="b" x="33.49" y="18">v</tspan><tspan class="d" x="41.58" y="18">e</tspan><tspan class="f" x="49.63" y="18">s in US</tspan><tspan class="k" x="95.83" y="18"> </tspan><tspan class="i" x="99.58" y="18">after</tspan><tspan class="i"><tspan x="9.13" y="36">Asian immigration</tspan></tspan><tspan class="i"><tspan x="19.26" y="54">ban is </tspan><tspan class="ae" x="62.62" y="54">r</tspan><tspan x="68.1" y="54">e</tspan><tspan class="ag" x="75.9" y="54">v</tspan><tspan x="83.38" y="54">ers</tspan><tspan class="ac" x="103.86" y="54">e</tspan><tspan x="111.73" y="54">d</tspan></tspan></text><g><line class="r" x1="278.79" y1="559.95" x2="278.79" y2="558.75"/><line class="t" x1="278.79" y1="556.35" x2="278.79" y2="260.02"/><line class="r" x1="278.79" y1="258.82" x2="278.79" y2="257.62"/></g><text class="m" transform="translate(358.45 171.58)"><tspan x="0" y="0">My mom</tspan><tspan class="x" x="57.03" y="0">’</tspan><tspan x="60.85" y="0">s nuclear</tspan><tspan x="0" y="18">fami</tspan><tspan class="h" x="29.26" y="18">l</tspan><tspan class="z" x="33.49" y="18">y arri</tspan><tspan class="ag" x="67.72" y="18">v</tspan><tspan x="75.21" y="18">es in US</tspan></text><g><line class="r" x1="353.31" y1="315.6" x2="353.31" y2="314.4"/><line class="s" x1="353.31" y1="312" x2="353.31" y2="164.41"/><line class="r" x1="353.31" y1="163.21" x2="353.31" y2="162.01"/></g><text class="y" transform="translate(102.54 271.64)"><tspan class="f"><tspan x="0" y="0">Asian immig</tspan><tspan class="ab" x="86.56" y="0">r</tspan><tspan class="aa" x="92.7" y="0">a</tspan><tspan x="100.95" y="0">tion </tspan></tspan><tspan class="f" x="20.42" y="18">bann</tspan><tspan class="g" x="55.75" y="18">e</tspan><tspan class="f" x="63.83" y="18">d</tspan><tspan class="i" x="72.94" y="18" xml:space="preserve"> after </tspan><tspan class="i"><tspan x="9.31" y="36">Cong</tspan><tspan class="h" x="43.07" y="36">r</tspan><tspan x="48.55" y="36">ess passes </tspan></tspan><tspan class="i"><tspan x="3.61" y="54">Oriental E</tspan><tspan class="h" x="70.01" y="54">x</tspan><tspan x="77.41" y="54">clusion </tspan></tspan><tspan class="i"><tspan x="27.47" y="72">Act of 19</tspan><tspan class="u" x="85.34" y="72">2</tspan><tspan x="92.81" y="72">4</tspan></tspan></text><line class="o" x1="167.01" y1="566.9" x2="167.01" y2="350"/><g><text class="n" transform="translate(56.28 508.02)"><tspan class="u" x="0" y="0">K</tspan><tspan x="9.12" y="0">o</tspan><tspan class="h" x="17.4" y="0">r</tspan><tspan x="22.88" y="0">eans </tspan><tspan class="ac" x="57.73" y="0">c</tspan><tspan x="65.32" y="0">ame to the </tspan><tspan x="6.28" y="18">US as la</tspan><tspan class="ac" x="59.23" y="18">b</tspan><tspan x="67.99" y="18">o</tspan><tspan class="h" x="76.27" y="18">r</tspan><tspan x="81.74" y="18">ers and </tspan><tspan x="13.42" y="36">“pic</tspan><tspan class="ag" x="40.66" y="36">t</tspan><tspan x="46.33" y="36">u</tspan><tspan class="ae" x="54.7" y="36">r</tspan><tspan x="60.18" y="36">e brides</tspan><tspan class="ah" x="113.44" y="36">.</tspan><tspan x="116.59" y="36">” </tspan></text><text class="m" transform="translate(56.28 508.02)"><tspan class="u" x="0" y="0">K</tspan><tspan x="9.12" y="0">o</tspan><tspan class="h" x="17.4" y="0">r</tspan><tspan x="22.88" y="0">eans </tspan><tspan class="ac" x="57.73" y="0">c</tspan><tspan x="65.32" y="0">ame to the </tspan><tspan x="6.28" y="18">US as la</tspan><tspan class="ac" x="59.23" y="18">b</tspan><tspan x="67.99" y="18">o</tspan><tspan class="h" x="76.27" y="18">r</tspan><tspan x="81.74" y="18">ers and </tspan><tspan x="13.42" y="36">“pic</tspan><tspan class="ag" x="40.66" y="36">t</tspan><tspan x="46.33" y="36">u</tspan><tspan class="ae" x="54.7" y="36">r</tspan><tspan x="60.18" y="36">e brides</tspan><tspan class="ah" x="113.44" y="36">.</tspan><tspan x="116.59" y="36">” </tspan></text></g><line class="o" x1="111.1" y1="566.9" x2="111.1" y2="548.62"/></svg>