<?xml version="1.0" encoding="UTF-8"?><svg id="a" xmlns="http://www.w3.org/2000/svg" viewBox="0 0 1100 700"><defs><style>.b{letter-spacing:0em;}.c{letter-spacing:-.02em;}.d{fill:#eee9e3;}.e{fill:#ff005c;}.f{fill:#c6bdb5;}.g{letter-spacing:-.05em;}.h{letter-spacing:0em;}.i{font-size:36px;}.i,.j{font-family:National2-Bold, 'National 2';}.k{letter-spacing:0em;}.j{font-size:18px;}.l{letter-spacing:-.01em;}.m{letter-spacing:0em;}.n{letter-spacing:-.05em;}.o{font-size:15px;}.o,.p{font-family:National2-Regular, 'National 2';}.q{letter-spacing:-.02em;}.p{font-size:24px;}.r{fill:none;stroke:#eee9e3;stroke-miterlimit:10;stroke-width:.94px;}.s{letter-spacing:0em;}.t{letter-spacing:-.01em;}.u{letter-spacing:0em;}</style></defs><rect class="d" x="1.27" y="1.37" width="1098.73" height="700"/><text class="i" transform="translate(29.41 56.52)"><tspan x="0" y="0">What Americans put in kimchi</tspan></text><text class="p" transform="translate(29.41 92.39)"><tspan x="0" y="0">I gathered 23 of the most popular online recipes, and received 19 recipes from a callout</tspan></text><g><polygon class="f" points="153.23 207.48 153.23 207.48 508.28 207.48 508.28 207.48 508.28 195.48 508.28 195.48 153.23 195.48 153.23 195.48 153.23 207.48"/><polygon class="f" points="153.23 226.43 153.23 226.43 508.28 226.43 508.28 226.43 508.28 214.43 508.28 214.43 153.23 214.43 153.23 214.43 153.23 226.43"/><polygon class="f" points="153.23 245.38 153.23 245.39 508.28 245.39 508.28 245.38 508.28 233.39 508.28 233.39 153.23 233.39 153.23 233.39 153.23 245.38"/><polygon class="f" points="153.23 264.48 153.23 264.48 508.28 264.48 508.28 264.48 508.28 252.48 508.28 252.48 153.23 252.48 153.23 252.48 153.23 264.48"/><polygon class="f" points="153.23 283.48 153.23 283.48 508.28 283.48 508.28 283.48 508.28 271.48 508.28 271.48 153.23 271.48 153.23 271.48 153.23 283.48"/><polygon class="f" points="153.23 302.48 153.23 302.48 508.28 302.48 508.28 302.48 508.28 290.48 508.28 290.48 153.23 290.48 153.23 290.48 153.23 302.48"/><polygon class="f" points="153.23 321.48 153.23 321.48 508.28 321.48 508.28 321.48 508.28 309.48 508.28 309.48 153.23 309.48 153.23 309.48 153.23 321.48"/><polygon class="f" points="153.23 340.48 153.23 340.48 508.28 340.48 508.28 340.48 508.28 328.48 508.28 328.48 153.23 328.48 153.23 328.48 153.23 340.48"/><polygon class="f" points="153.23 359.48 153.23 359.48 508.28 359.48 508.28 359.48 508.28 347.48 508.28 347.48 153.23 347.48 153.23 347.48 153.23 359.48"/><polygon class="e" points="153.23 207.48 153.23 207.48 498.97 207.48 498.97 207.48 498.97 195.48 498.97 195.48 153.23 195.48 153.23 195.48 153.23 207.48"/><polygon class="e" points="153.23 226.48 153.23 226.48 465.28 226.48 465.28 226.48 465.28 214.48 465.28 214.48 153.23 214.48 153.23 214.48 153.23 226.48"/><polygon class="e" points="153.23 245.48 153.23 245.48 457.3 245.48 457.3 245.48 457.3 233.48 457.3 233.48 153.23 233.48 153.23 233.48 153.23 245.48"/><polygon class="e" points="153.23 264.48 153.23 264.48 338.51 264.48 338.51 264.48 338.51 252.48 338.51 252.48 153.23 252.48 153.23 252.48 153.23 264.48"/><polygon class="e" points="153.23 283.48 153.23 283.48 271.13 283.48 271.13 283.48 271.13 271.48 271.13 271.48 153.23 271.48 153.23 271.48 153.23 283.48"/><polygon class="e" points="153.23 302.48 153.23 302.48 254.29 302.48 254.29 302.48 254.29 290.48 254.29 290.48 153.23 290.48 153.23 290.48 153.23 302.48"/><polygon class="e" points="153.23 321.48 153.23 321.48 186.91 321.48 186.92 321.48 186.92 309.48 186.91 309.48 153.23 309.48 153.23 309.48 153.23 321.48"/><polygon class="e" points="153.23 340.48 153.23 340.48 178.05 340.48 178.05 340.48 178.05 328.48 178.05 328.48 153.23 328.48 153.23 328.48 153.23 340.48"/><polygon class="e" points="153.23 359.48 153.23 359.48 161.21 359.48 161.21 359.48 161.21 347.48 161.21 347.48 153.23 347.48 153.23 347.48 153.23 359.48"/><text class="o" transform="translate(106.16 205.28)"><tspan x="0" y="0">Garlic</tspan></text><text class="o" transform="translate(101.8 224.24)"><tspan x="0" y="0">Ginger</tspan></text><text class="o" transform="translate(64.57 243.21)"><tspan x="0" y="0">Green onion</tspan></text><text class="o" transform="translate(65.71 262.17)"><tspan x="0" y="0">White onion</tspan></text><text class="o" transform="translate(101.54 281.13)"><tspan x="0" y="0">Chives</tspan></text><text class="o" transform="translate(59.97 300.1)"><tspan x="0" y="0">Yellow onion</tspan></text><text class="o" transform="translate(91.13 319.06)"><tspan x="0" y="0">Shallots</tspan></text><text class="o" transform="translate(106.28 338.02)"><tspan x="0" y="0">Leeks</tspan></text><text class="o" transform="translate(99.11 356.99)"><tspan x="0" y="0">Ramps</tspan></text></g><g><polygon class="f" points="153.23 556.43 153.23 556.43 508.28 556.43 508.28 556.43 508.28 544.44 508.28 544.43 153.23 544.43 153.23 544.44 153.23 556.43"/><polygon class="f" points="153.09 575.54 153.09 575.54 508.14 575.54 508.14 575.54 508.14 563.54 508.14 563.54 153.09 563.54 153.09 563.54 153.09 575.54"/><polygon class="f" points="153.35 594.52 153.35 594.52 508.4 594.52 508.4 594.52 508.4 582.52 508.4 582.52 153.35 582.52 153.35 582.52 153.35 594.52"/><polygon class="f" points="153.23 613.6 153.23 613.6 508.28 613.6 508.28 613.6 508.28 601.61 508.28 601.6 153.23 601.6 153.23 601.61 153.23 613.6"/><polygon class="f" points="153.23 632.56 153.23 632.56 508.28 632.56 508.28 632.56 508.28 620.56 508.28 620.56 153.23 620.56 153.23 620.56 153.23 632.56"/><polygon class="f" points="153.23 651.51 153.23 651.51 508.28 651.51 508.28 651.51 508.28 639.51 508.28 639.51 153.23 639.51 153.23 639.51 153.23 651.51"/><polygon class="f" points="153.23 670.47 153.23 670.47 508.28 670.47 508.28 670.47 508.28 658.47 508.28 658.47 153.23 658.47 153.23 658.47 153.23 670.47"/><polygon class="e" points="153.23 556.51 153.23 556.51 170.07 556.51 170.07 556.51 170.07 544.51 170.07 544.51 153.23 544.51 153.23 544.51 153.23 556.51"/><polygon class="e" points="153.23 575.51 153.23 575.51 170.07 575.51 170.07 575.51 170.07 563.51 170.07 563.51 153.23 563.51 153.23 563.51 153.23 575.51"/><polygon class="e" points="153.23 594.51 153.23 594.51 161.21 594.51 161.21 594.51 161.21 582.51 161.21 582.51 153.23 582.51 153.23 582.51 153.23 594.51"/><polygon class="e" points="153.23 613.51 153.23 613.51 161.21 613.51 161.21 613.51 161.21 601.51 161.21 601.51 153.23 601.51 153.23 601.51 153.23 613.51"/><polygon class="e" points="153.23 632.51 153.23 632.51 161.21 632.51 161.21 632.51 161.21 620.51 161.21 620.51 153.23 620.51 153.23 620.51 153.23 632.51"/><polygon class="e" points="153.23 651.51 153.23 651.51 161.21 651.51 161.21 651.51 161.21 639.51 161.21 639.51 153.23 639.51 153.23 639.51 153.23 651.51"/><polygon class="e" points="153.23 670.51 153.23 670.51 161.21 670.51 161.21 670.51 161.21 658.51 161.21 658.51 153.23 658.51 153.23 658.51 153.23 670.51"/><polygon class="f" points="153.23 404.51 153.23 404.51 508.28 404.51 508.28 404.51 508.28 392.51 508.28 392.51 153.23 392.51 153.23 392.51 153.23 404.51"/><polygon class="f" points="153.23 423.51 153.23 423.51 508.28 423.51 508.28 423.51 508.28 411.51 508.28 411.51 153.23 411.51 153.23 411.51 153.23 423.51"/><polygon class="f" points="153.23 442.51 153.23 442.51 508.28 442.51 508.28 442.51 508.28 430.51 508.28 430.51 153.23 430.51 153.23 430.51 153.23 442.51"/><polygon class="f" points="153.23 461.51 153.23 461.51 508.28 461.51 508.28 461.51 508.28 449.51 508.28 449.51 153.23 449.51 153.23 449.51 153.23 461.51"/><polygon class="e" points="153.23 404.51 153.23 404.51 389.93 404.51 389.93 404.51 389.93 392.51 389.93 392.51 153.23 392.51 153.23 392.51 153.23 404.51"/><polygon class="e" points="153.23 423.51 153.23 423.51 381.06 423.51 381.06 423.51 381.06 411.51 381.06 411.51 153.23 411.51 153.23 411.51 153.23 423.51"/><polygon class="e" points="153.23 442.51 153.23 442.51 203.76 442.51 203.76 442.51 203.76 430.51 203.76 430.51 153.23 430.51 153.23 430.51 153.23 442.51"/><polygon class="e" points="153.23 461.51 153.23 461.51 186.91 461.51 186.92 461.51 186.92 449.51 186.91 449.51 153.23 449.51 153.23 449.51 153.23 461.51"/><text class="o" transform="translate(75.2 402.99)"><tspan x="0" y="0">Fish sauce</tspan></text><text class="o" transform="translate(22.04 421.95)"><tspan x="0" y="0">Fermented shrimp</tspan></text><text class="o" transform="translate(79.1 440.91)"><tspan x="0" y="0">Soy sauce</tspan></text><text class="o" transform="translate(59.12 459.88)"><tspan x="0" y="0">Oyster sauce</tspan></text><polygon class="f" points="153.23 499.35 153.23 499.35 508.28 499.35 508.28 499.35 508.28 487.36 508.28 487.35 153.23 487.35 153.23 487.36 153.23 499.35"/><polygon class="f" points="153.23 518.35 153.23 518.35 508.28 518.35 508.28 518.35 508.28 506.36 508.28 506.35 153.23 506.35 153.23 506.36 153.23 518.35"/><polygon class="f" points="153.23 537.35 153.23 537.35 508.28 537.35 508.28 537.35 508.28 525.36 508.28 525.35 153.23 525.35 153.23 525.36 153.23 537.35"/><polygon class="e" points="153.23 499.35 153.23 499.35 178.05 499.35 178.05 499.35 178.05 487.36 178.05 487.35 153.23 487.35 153.23 487.36 153.23 499.35"/><polygon class="e" points="153.23 518.35 153.23 518.35 170.07 518.35 170.07 518.35 170.07 506.36 170.07 506.35 153.23 506.35 153.23 506.36 153.23 518.35"/><polygon class="e" points="153.23 537.35 153.23 537.35 170.07 537.35 170.07 537.35 170.07 525.36 170.07 525.35 153.23 525.35 153.23 525.36 153.23 537.35"/><text class="o" transform="translate(38.85 497.68)"><tspan x="0" y="0">Anchovy (dried)</tspan></text><text class="o" transform="translate(42.53 516.65)"><tspan x="0" y="0">Pollock (dried) </tspan></text><text class="o" transform="translate(74.28 535.61)"><tspan x="0" y="0">Mushroom</tspan></text><polygon class="f" points="153.23 480.79 153.23 480.79 508.28 480.79 508.28 480.79 508.28 468.79 508.28 468.79 153.23 468.79 153.23 468.79 153.23 480.79"/><polygon class="e" points="153.23 480.79 153.23 480.79 186.91 480.79 186.92 480.79 186.92 468.79 186.91 468.79 153.23 468.79 153.23 468.79 153.23 480.79"/><text class="o" transform="translate(114.77 479)"><tspan x="0" y="0">Kelp</tspan></text><text class="o" transform="translate(113.88 554.7)"><tspan x="0" y="0">Miso</tspan></text><text class="o" transform="translate(101.41 573.66)"><tspan x="0" y="0">Oyster</tspan></text><text class="o" transform="translate(114.45 592.62)"><tspan x="0" y="0">MSG</tspan></text><text class="o" transform="translate(68.9 611.59)"><tspan x="0" y="0">Squid (raw)</tspan></text><text class="o" transform="translate(73.79 630.55)"><tspan x="0" y="0">Kombucha</tspan></text><text class="o" transform="translate(73.76 649.51)"><tspan x="0" y="0">Sesame oil</tspan></text><text class="o" transform="translate(58.96 668.48)"><tspan x="0" y="0">Sesame seed</tspan></text></g><g><polygon class="e" points="153.23 187.98 153.23 187.98 507.83 187.98 507.83 187.98 507.83 175.98 507.83 175.98 153.23 175.98 153.23 175.98 153.23 187.98"/><text class="o" transform="translate(73.13 185.9)"><tspan x="0" y="0">Gochugaru</tspan></text></g><g><line class="r" x1="241.44" y1="138.77" x2="241.44" y2="685.78"/><line class="r" x1="330.09" y1="138.77" x2="330.09" y2="685.78"/><line class="r" x1="418.74" y1="138.77" x2="418.74" y2="685.78"/><line class="r" x1="508.28" y1="138.77" x2="508.28" y2="685.78"/><text class="o" transform="translate(230.78 165.72)"><tspan x="0" y="0">25%</tspan></text><text class="o" transform="translate(318.91 165.72)"><tspan x="0" y="0">50%</tspan></text><text class="o" transform="translate(408.24 165.72)"><tspan x="0" y="0">75%</tspan></text><text class="o" transform="translate(490.02 165.72)"><tspan x="0" y="0">100%</tspan></text></g><text class="j" transform="translate(103.51 383.16)"><tspan class="q" x="0" y="0">F</tspan><tspan x="9.9" y="0">unk</tspan></text><text class="j" transform="translate(29.78 163.72)"><tspan class="b" x="0" y="0">Al</tspan><tspan class="k" x="18.16" y="0">lium</tspan><tspan class="s" x="55.6" y="0">s</tspan><tspan class="g" x="64.37" y="0">/</tspan><tspan class="k" x="71.5" y="0">spice</tspan></text><g><polygon class="f" points="669.52 183.34 669.52 183.34 1024.57 183.34 1024.57 183.34 1024.57 171.34 1024.57 171.34 669.52 171.34 669.52 171.34 669.52 183.34"/><polygon class="f" points="669.52 202.48 669.52 202.48 1024.57 202.48 1024.57 202.48 1024.57 190.48 1024.57 190.48 669.52 190.48 669.52 190.48 669.52 202.48"/><polygon class="f" points="669.52 221.48 669.52 221.48 1024.57 221.48 1024.57 221.48 1024.57 209.48 1024.57 209.48 669.52 209.48 669.52 209.48 669.52 221.48"/><polygon class="f" points="669.34 240.41 669.34 240.41 1024.39 240.41 1024.39 240.41 1024.39 228.41 1024.39 228.41 669.34 228.41 669.34 228.41 669.34 240.41"/><polygon class="f" points="669.52 259.48 669.52 259.48 1024.57 259.48 1024.57 259.48 1024.57 247.48 1024.57 247.48 669.52 247.48 669.52 247.48 669.52 259.48"/><polygon class="f" points="669.52 278.48 669.52 278.48 1024.57 278.48 1024.57 278.48 1024.57 266.48 1024.57 266.48 669.52 266.48 669.52 266.48 669.52 278.48"/><polygon class="f" points="669.52 297.57 669.52 297.57 1024.57 297.57 1024.57 297.57 1024.57 285.57 1024.57 285.57 669.52 285.57 669.52 285.57 669.52 297.57"/><polygon class="f" points="669.52 316.52 669.52 316.52 1024.57 316.52 1024.57 316.52 1024.57 304.52 1024.57 304.52 669.52 304.52 669.52 304.52 669.52 316.52"/><polygon class="e" points="669.52 183.48 669.52 183.48 914.19 183.48 914.2 183.48 914.2 171.48 914.19 171.48 669.52 171.48 669.52 171.48 669.52 183.48"/><polygon class="e" points="669.52 202.48 669.52 202.48 787.42 202.48 787.42 202.48 787.42 190.48 787.42 190.48 669.52 190.48 669.52 190.48 669.52 202.48"/><polygon class="e" points="669.52 221.48 669.52 221.48 720.05 221.48 720.05 221.48 720.05 209.48 720.05 209.48 669.52 209.48 669.52 209.48 669.52 221.48"/><polygon class="e" points="669.52 240.48 669.52 240.48 694.34 240.48 694.34 240.48 694.34 228.48 694.34 228.48 669.52 228.48 669.52 228.48 669.52 240.48"/><polygon class="e" points="669.52 259.48 669.52 259.48 686.36 259.48 686.36 259.48 686.36 247.48 686.36 247.48 669.52 247.48 669.52 247.48 669.52 259.48"/><polygon class="e" points="669.52 278.48 669.52 278.48 677.49 278.48 677.49 278.48 677.49 266.48 677.49 266.48 669.52 266.48 669.52 266.48 669.52 278.48"/><polygon class="e" points="669.52 297.48 669.52 297.48 677.49 297.48 677.49 297.48 677.49 285.48 677.49 285.48 669.52 285.48 669.52 285.48 669.52 297.48"/><polygon class="e" points="669.52 316.48 669.52 316.48 677.49 316.48 677.49 316.48 677.49 304.48 677.49 304.48 669.52 304.48 669.52 304.48 669.52 316.48"/><text class="o" transform="translate(623.92 181.37)"><tspan x="0" y="0">Sugar</tspan></text><text class="o" transform="translate(615.71 200.33)"><tspan x="0" y="0">Apples</tspan></text><text class="o" transform="translate(575.51 219.3)"><tspan x="0" y="0">Plum extract</tspan></text><text class="o" transform="translate(618.68 238.26)"><tspan x="0" y="0">Honey</tspan></text><text class="o" transform="translate(585.42 257.22)"><tspan x="0" y="0">Goji berries</tspan></text><text class="o" transform="translate(601.23 276.19)"><tspan x="0" y="0">Artificial </tspan></text><text class="o" transform="translate(591.44 295.15)"><tspan x="0" y="0">Rice syrup</tspan></text><text class="o" transform="translate(589.42 314.11)"><tspan x="0" y="0">Fruit stock</tspan></text></g><g><polygon class="f" points="669.52 364.77 669.52 364.77 1024.57 364.77 1024.57 364.77 1024.57 352.78 1024.57 352.77 669.52 352.77 669.52 352.78 669.52 364.77"/><polygon class="f" points="669.52 383.73 669.52 383.73 1024.57 383.73 1024.57 383.73 1024.57 371.73 1024.57 371.73 669.52 371.73 669.52 371.73 669.52 383.73"/><polygon class="f" points="669.52 402.68 669.52 402.68 1024.57 402.68 1024.57 402.68 1024.57 390.68 1024.57 390.68 669.52 390.68 669.52 390.68 669.52 402.68"/><polygon class="e" points="669.52 364.77 669.52 364.77 863.66 364.77 863.66 364.77 863.66 352.78 863.66 352.77 669.52 352.77 669.52 352.78 669.52 364.77"/><polygon class="e" points="669.52 383.77 669.52 383.77 677.49 383.77 677.49 383.77 677.49 371.78 677.49 371.77 669.52 371.77 669.52 371.78 669.52 383.77"/><polygon class="e" points="669.52 402.77 669.52 402.77 677.49 402.77 677.49 402.77 677.49 390.78 677.49 390.77 669.52 390.77 669.52 390.78 669.52 402.77"/><text class="o" transform="translate(554.16 362.37)"><tspan x="0" y="0">Sweet rice flour </tspan></text><text class="o" transform="translate(616.67 381.34)"><tspan x="0" y="0">Potato</tspan></text><text class="o" transform="translate(543.26 400.3)"><tspan x="0" y="0">Wheat flour paste</tspan></text></g><g><polygon class="f" points="669.52 454.68 669.52 454.68 1024.57 454.68 1024.57 454.68 1024.57 442.68 1024.57 442.68 669.52 442.68 669.52 442.68 669.52 454.68"/><polygon class="f" points="669.52 473.68 669.52 473.68 1024.57 473.68 1024.57 473.68 1024.57 461.68 1024.57 461.68 669.52 461.68 669.52 461.68 669.52 473.68"/><polygon class="f" points="669.34 492.75 669.34 492.75 1024.39 492.75 1024.39 492.75 1024.39 480.76 1024.39 480.75 669.34 480.75 669.34 480.76 669.34 492.75"/><polygon class="f" points="669.36 511.73 669.36 511.73 1024.41 511.73 1024.41 511.73 1024.41 499.73 1024.41 499.73 669.36 499.73 669.36 499.73 669.36 511.73"/><polygon class="f" points="669.52 530.68 669.52 530.68 1024.57 530.68 1024.57 530.68 1024.57 518.68 1024.57 518.68 669.52 518.68 669.52 518.68 669.52 530.68"/><polygon class="f" points="669.52 549.68 669.52 549.68 1024.57 549.68 1024.57 549.68 1024.57 537.68 1024.57 537.68 669.52 537.68 669.52 537.68 669.52 549.68"/><polygon class="f" points="669.52 568.77 669.52 568.77 1024.57 568.77 1024.57 568.77 1024.57 556.78 1024.57 556.77 669.52 556.77 669.52 556.78 669.52 568.77"/><polygon class="f" points="669.52 587.73 669.52 587.73 1024.57 587.73 1024.57 587.73 1024.57 575.73 1024.57 575.73 669.52 575.73 669.52 575.73 669.52 587.73"/><polygon class="f" points="669.52 606.68 669.52 606.68 1024.57 606.68 1024.57 606.68 1024.57 594.68 1024.57 594.68 669.52 594.68 669.52 594.68 669.52 606.68"/><polygon class="e" points="669.52 454.68 669.52 454.68 846.82 454.68 846.82 454.68 846.82 442.68 846.82 442.68 669.52 442.68 669.52 442.68 669.52 454.68"/><polygon class="e" points="669.52 473.68 669.52 473.68 837.95 473.68 837.95 473.68 837.95 461.68 837.95 461.68 669.52 461.68 669.52 461.68 669.52 473.68"/><polygon class="e" points="669.52 492.68 669.52 492.68 837.95 492.68 837.95 492.68 837.95 480.68 837.95 480.68 669.52 480.68 669.52 480.68 669.52 492.68"/><polygon class="e" points="669.52 511.68 669.52 511.68 703.2 511.68 703.2 511.68 703.2 499.68 703.2 499.68 669.52 499.68 669.52 499.68 669.52 511.68"/><polygon class="e" points="669.52 530.68 669.52 530.68 686.36 530.68 686.36 530.68 686.36 518.68 686.36 518.68 669.52 518.68 669.52 518.68 669.52 530.68"/><polygon class="e" points="669.52 549.68 669.52 549.68 677.49 549.68 677.49 549.68 677.49 537.68 677.49 537.68 669.52 537.68 669.52 537.68 669.52 549.68"/><polygon class="e" points="669.52 568.68 669.52 568.68 677.49 568.68 677.49 568.68 677.49 556.68 677.49 556.68 669.52 556.68 669.52 556.68 669.52 568.68"/><polygon class="e" points="669.52 587.68 669.52 587.68 677.49 587.68 677.49 587.68 677.49 575.68 677.49 575.68 669.52 575.68 669.52 575.68 669.52 587.68"/><polygon class="e" points="669.52 606.68 669.52 606.68 677.49 606.68 677.49 606.68 677.49 594.68 677.49 594.68 669.52 594.68 669.52 594.68 669.52 606.68"/><text class="o" transform="translate(568.72 453.17)"><tspan x="0" y="0">Korean radish</tspan></text><text class="o" transform="translate(615.07 472.14)"><tspan x="0" y="0">Daikon</tspan></text><text class="o" transform="translate(612.45 491.1)"><tspan x="0" y="0">Carrots</tspan></text><text class="o" transform="translate(557.81 510.07)"><tspan x="0" y="0">Mustard greens</tspan></text><text class="o" transform="translate(619.75 529.03)"><tspan x="0" y="0">Minari</tspan></text><text class="o" transform="translate(600.62 547.99)"><tspan x="0" y="0">Bok choy</tspan></text><text class="o" transform="translate(577.61 566.96)"><tspan x="0" y="0">Bell peppers</tspan></text><text class="o" transform="translate(554.64 585.92)"><tspan x="0" y="0">Vegetable stock</tspan></text><text class="o" transform="translate(599.02 604.88)"><tspan x="0" y="0">Pine nuts</tspan></text></g><line class="r" x1="757.72" y1="136.43" x2="757.72" y2="685.78"/><line class="r" x1="846.38" y1="136.43" x2="846.38" y2="685.78"/><line class="r" x1="935.03" y1="136.43" x2="935.03" y2="685.78"/><line class="r" x1="1024.57" y1="136.43" x2="1024.57" y2="685.78"/><text class="j" transform="translate(570.78 430.31)"><tspan class="n" x="0" y="0">V</tspan><tspan x="11.12" y="0">e</tspan><tspan class="t" x="20.74" y="0">g</tspan><tspan x="30.64" y="0">eta</tspan><tspan class="h" x="57.82" y="0">b</tspan><tspan x="68.8" y="0">l</tspan><tspan class="m" x="74.45" y="0">e</tspan><tspan x="84.11" y="0">s</tspan></text><text class="j" transform="translate(563.68 160.88)"><tspan x="0" y="0">S</tspan><tspan class="l" x="10.53" y="0">w</tspan><tspan class="u" x="24.08" y="0">e</tspan><tspan x="33.79" y="0">eteners</tspan></text><text class="j" transform="translate(570.63 340.42)"><tspan x="0" y="0">Thic</tspan><tspan class="c" x="36.72" y="0">k</tspan><tspan x="46.76" y="0">eners</tspan></text><text class="o" transform="translate(747.07 163.9)"><tspan x="0" y="0">25%</tspan></text><text class="o" transform="translate(835.2 163.9)"><tspan x="0" y="0">50%</tspan></text><text class="o" transform="translate(924.53 163.9)"><tspan x="0" y="0">75%</tspan></text><text class="o" transform="translate(1006.31 163.9)"><tspan x="0" y="0">100%</tspan></text></svg>